<svg width="496" height="547" xmlns="http://www.w3.org/2000/svg" xmlns:xlink="http://www.w3.org/1999/xlink" xml:space="preserve" overflow="hidden"><defs><clipPath id="clip0"><rect x="555" y="62" width="496" height="547"/></clipPath></defs><g clip-path="url(#clip0)" transform="translate(-555 -62)"><path d="M546.652 81.4771C541.477 81.5453 536.303 81.4771 531.133 81.2729 530.728 76.0641 530.593 70.823 530.724 65.5492 535.964 65.0755 541.273 65.0073 546.652 65.345 547.195 70.7625 547.195 76.1396 546.652 81.4771Z" fill="#393939" fill-rule="evenodd" transform="matrix(1.00044 0 0 1 479.177 20.2656)"/><path d="M442.1 73.3089C452.31 73.2407 462.52 73.3089 472.73 73.5131 473.314 73.7031 473.792 74.0437 474.16 74.5342 474.433 85.1527 474.433 95.7713 474.16 106.39 474.033 106.72 473.829 106.992 473.547 107.207 462.945 107.679 452.326 107.747 441.691 107.411 441.353 107.071 441.009 106.73 440.67 106.39 440.397 95.9073 440.397 85.4251 440.67 74.9426 440.952 74.187 441.43 73.6422 442.1 73.3089Z" fill="#393939" fill-rule="evenodd" transform="matrix(1.00044 0 0 1 479.177 20.2656)"/><path d="M530.724 65.5492C530.593 70.823 530.728 76.0641 531.133 81.2729 536.303 81.4771 541.477 81.5453 546.652 81.4771 547.195 76.1396 547.195 70.7625 546.652 65.345 541.273 65.0073 535.964 65.0755 530.724 65.5492Z" fill="#171717" fill-rule="evenodd" fill-opacity="0.376" transform="matrix(1.00044 0 0 1 479.177 20.2656)"/><path d="M85.1527 235.038C85.5219 234.748 85.6579 234.34 85.5611 233.813 102.578 233.813 119.595 233.813 136.612 233.813 155.983 288.317 175.246 342.907 194.401 397.584 196.201 401.921 199.4 404.576 203.999 405.548 251.51 405.82 299.022 405.82 346.533 405.548 352.239 403.923 355.711 400.179 356.947 394.316 370.425 347.486 383.902 300.655 397.379 253.825 398.037 245.544 394.293 240.575 386.148 238.918 326.657 238.645 267.166 238.645 207.675 238.918 199.491 240.785 195.884 245.89 196.852 254.233 198.584 259.573 202.191 262.84 207.675 264.035 261.04 264.307 314.405 264.579 367.77 264.852 356.932 303.167 345.905 341.421 334.689 379.614 314.831 380.156 294.887 380.428 274.857 380.431 254.885 380.43 234.941 380.293 215.026 380.022 195.534 324.884 175.999 269.749 156.42 214.618 153.981 210.819 150.509 208.709 146.005 208.287 132.392 208.151 118.778 208.015 105.165 207.879 158.53 176.976 211.895 146.073 265.26 115.171 280.164 108.568 294.866 108.976 309.368 116.396 335.063 131.251 360.725 146.158 386.352 161.116 386.488 178.542 386.625 195.967 386.761 213.392 387.101 217.545 389.347 219.791 393.5 220.131 421.406 220.403 449.316 220.403 477.223 220.131 478.121 219.979 479.004 219.775 479.878 219.518 483.059 223.567 485.509 228.06 487.229 232.996 492.869 226.338 498.317 219.531 503.565 212.576 503.859 212.187 504.198 212.119 504.586 212.371 497.696 229.082 489.867 245.35 481.103 261.176 453.972 310.266 421.435 355.463 383.494 396.767 370.483 410.595 356.734 423.53 342.245 435.565 339.004 421.59 330.224 414.99 315.902 415.758 304.251 418.629 297.989 426.045 297.116 438.016 297.686 447.397 302.178 454.136 310.593 458.232 311.137 458.506 311.137 458.775 310.593 459.049 289.5 473.065 266.765 483.684 242.389 490.904 214.166 498.84 185.85 499.248 157.441 492.13 126.883 482.794 102.583 465.028 84.5401 438.833 84.1366 437.64 83.8646 436.415 83.7233 435.157 83.4509 370.22 83.4509 305.284 83.7233 240.347 83.8916 238.445 84.3682 236.675 85.1527 235.038ZM231.362 415.553C246.789 415.121 255.501 422.541 257.5 437.812 256.531 449.672 250.269 457.023 238.714 459.866 224.369 460.695 215.725 454.091 212.78 440.058 212.764 427.148 218.958 418.98 231.362 415.553Z" fill="#3A3A3A" fill-rule="evenodd" transform="matrix(1.00044 0 0 1 479.177 20.2656)"/><path d="M504.586 133.345C518.063 133.276 531.541 133.345 545.018 133.549 545.664 133.838 546.276 134.178 546.856 134.57 547.53 148.421 547.669 162.307 547.265 176.227 546.946 176.957 546.468 177.569 545.835 178.065 532.382 178.737 518.905 178.873 505.403 178.474 504.268 178.447 503.385 177.97 502.748 177.044 502.475 163.022 502.475 149 502.748 134.978 503.32 134.337 503.933 133.792 504.586 133.345Z" fill="#393939" fill-rule="evenodd" transform="matrix(1.00044 0 0 1 479.177 20.2656)"/><path d="M410.244 139.879C427.806 139.811 445.367 139.879 462.929 140.083 464.219 140.688 464.971 141.709 465.175 143.146 465.449 160.027 465.449 176.908 465.175 193.789 464.893 194.89 464.28 195.775 463.337 196.443 445.808 197.12 428.247 197.256 410.653 196.852 409.787 196.394 409.035 195.781 408.406 195.014 407.735 177.744 407.599 160.454 407.998 143.146 408.253 141.672 409.003 140.583 410.244 139.879Z" fill="#393939" fill-rule="evenodd" transform="matrix(1.00044 0 0 1 479.177 20.2656)"/><path d="M136.612 233.813C119.595 233.813 102.578 233.813 85.5611 233.813 85.6579 234.34 85.5219 234.748 85.1527 235.038 85.0429 234.25 85.2471 233.57 85.7653 232.996 102.754 233.267 119.703 233.539 136.612 233.813Z" fill="#1D1D1D" fill-rule="evenodd" fill-opacity="0.486" transform="matrix(1.00044 0 0 1 479.177 20.2656)"/><path d="M207.675 264.035C261.177 263.899 314.678 264.035 368.178 264.443 368.128 264.691 367.992 264.827 367.77 264.852 314.405 264.579 261.04 264.307 207.675 264.035Z" fill="#222222" fill-rule="evenodd" fill-opacity="0.596" transform="matrix(1.00044 0 0 1 479.177 20.2656)"/><path d="M489.067 432.707C489.201 378.865 489.067 325.091 488.658 271.386 488.642 270.873 488.846 270.465 489.271 270.161 489.61 324.411 489.544 378.593 489.067 432.707Z" fill="#3F1400" fill-rule="evenodd" fill-opacity="0.251" transform="matrix(1.00044 0 0 1 479.177 20.2656)"/><path d="M488.658 271.386C489.067 325.091 489.201 378.865 489.067 432.707 487.502 446.119 481.511 457.076 471.097 465.583 417.118 496.998 363.072 528.31 308.959 559.517 297.2 565.414 284.948 566.639 272.203 563.192 268.637 562.159 265.37 560.591 262.401 558.496 262.208 557.92 261.799 557.65 261.176 557.679 257.228 555.706 253.416 553.529 249.74 551.144 249.547 550.569 249.139 550.299 248.515 550.328 246.202 549.307 244.024 548.081 241.981 546.652 241.788 546.076 241.379 545.807 240.756 545.835 240.892 545.561 241.028 545.292 241.164 545.018 245.794 543.928 250.422 542.841 255.05 541.751 256.545 541.661 257.907 541.253 259.134 540.526 282.028 532.684 303.401 521.931 323.254 508.262 323.877 508.29 324.286 508.021 324.479 507.445 329.909 503.365 335.354 499.281 340.815 495.193 341.734 494.956 342.414 494.413 342.857 493.559 342.857 493.285 342.993 493.151 343.266 493.151 344.184 492.914 344.864 492.371 345.308 491.517 346.365 491.141 347.182 490.459 347.758 489.475 348.595 488.229 349.684 487.278 351.025 486.616 352.221 486.102 353.174 485.285 353.884 484.166 354.02 483.757 354.293 483.484 354.701 483.349 355.896 482.834 356.85 482.018 357.56 480.898 357.832 480.355 358.241 479.947 358.785 479.673 361.075 478.064 363.117 476.157 364.911 473.956 368.314 470.28 371.854 466.739 375.53 463.337 376.104 463.145 376.376 462.737 376.346 462.112 377.708 460.478 379.205 458.979 380.839 457.619 381.559 457.309 381.967 456.762 382.064 455.986 382.881 454.895 383.834 453.944 384.923 453.127 385.497 452.935 385.77 452.527 385.74 451.902 386.421 450.95 387.237 450.133 388.19 449.451 388.764 449.259 389.037 448.851 389.007 448.226 390.909 445.78 392.951 443.464 395.133 441.283 395.707 441.091 395.98 440.683 395.95 440.058 396.222 439.515 396.631 439.106 397.175 438.833 397.749 438.641 398.022 438.232 397.992 437.607 398.264 437.064 398.673 436.656 399.217 436.382 399.791 436.19 400.064 435.782 400.034 435.157 400.525 434.173 401.205 433.356 402.076 432.707 402.65 432.515 402.923 432.106 402.893 431.481 403.029 431.073 403.301 430.799 403.71 430.665 404.284 430.473 404.556 430.064 404.527 429.439 405.017 428.455 405.697 427.638 406.569 426.989 407.143 426.797 407.415 426.389 407.385 425.764 410.828 420.912 414.369 416.146 418.004 411.469 418.58 411.277 418.849 410.869 418.821 410.244 422.496 404.795 426.172 399.35 429.848 393.908 430.424 393.715 430.693 393.306 430.665 392.683 431.24 392.49 431.51 392.081 431.481 391.458 431.73 390.668 432.139 389.987 432.707 389.415 433.282 389.222 433.552 388.814 433.523 388.19 433.772 387.4 434.181 386.72 434.749 386.148 435.324 385.955 435.594 385.547 435.565 384.923 436.141 384.73 436.411 384.321 436.382 383.698 436.313 383.293 436.448 383.021 436.791 382.881 437.366 382.688 437.636 382.279 437.607 381.656 437.538 381.251 437.673 380.979 438.016 380.839 438.592 380.646 438.861 380.237 438.833 379.614 438.763 379.209 438.898 378.937 439.241 378.797 439.817 378.604 440.086 378.195 440.058 377.572 439.988 377.167 440.123 376.895 440.466 376.755 441.042 376.562 441.312 376.153 441.283 375.53 441.214 375.125 441.348 374.853 441.691 374.713 442.267 374.52 442.537 374.111 442.508 373.488 443.223 371.921 444.04 370.424 444.959 368.995 445.535 368.802 445.804 368.394 445.776 367.77 462.957 336.942 477.251 304.814 488.658 271.386Z" fill="#FC5400" fill-rule="evenodd" transform="matrix(1.00044 0 0 1 479.177 20.2656)"/><path d="M445.776 367.77C445.804 368.394 445.535 368.802 444.959 368.995 444.93 368.372 445.2 367.963 445.776 367.77Z" fill="#5B2005" fill-rule="evenodd" fill-opacity="0.365" transform="matrix(1.00044 0 0 1 479.177 20.2656)"/><path d="M442.508 373.488C442.537 374.111 442.267 374.52 441.691 374.713 441.663 374.089 441.932 373.681 442.508 373.488Z" fill="#652405" fill-rule="evenodd" fill-opacity="0.435" transform="matrix(1.00044 0 0 1 479.177 20.2656)"/><path d="M441.283 375.53C441.312 376.153 441.042 376.562 440.466 376.755 440.438 376.131 440.707 375.723 441.283 375.53Z" fill="#652405" fill-rule="evenodd" fill-opacity="0.435" transform="matrix(1.00044 0 0 1 479.177 20.2656)"/><path d="M440.058 377.572C440.086 378.195 439.817 378.604 439.241 378.797 439.212 378.173 439.482 377.765 440.058 377.572Z" fill="#652405" fill-rule="evenodd" fill-opacity="0.435" transform="matrix(1.00044 0 0 1 479.177 20.2656)"/><path d="M334.689 379.614C334.689 380.022 334.689 380.431 334.689 380.839 294.663 381.11 254.775 380.838 215.026 380.022 234.941 380.293 254.885 380.43 274.857 380.431 294.887 380.428 314.831 380.156 334.689 379.614Z" fill="#040404" fill-rule="evenodd" fill-opacity="0.062" transform="matrix(1.00044 0 0 1 479.177 20.2656)"/><path d="M438.833 379.614C438.861 380.237 438.592 380.646 438.016 380.839 437.987 380.215 438.257 379.807 438.833 379.614Z" fill="#642405" fill-rule="evenodd" fill-opacity="0.431" transform="matrix(1.00044 0 0 1 479.177 20.2656)"/><path d="M437.607 381.656C437.636 382.279 437.366 382.688 436.791 382.881 436.762 382.257 437.032 381.849 437.607 381.656Z" fill="#642405" fill-rule="evenodd" fill-opacity="0.431" transform="matrix(1.00044 0 0 1 479.177 20.2656)"/><path d="M436.382 383.698C436.411 384.321 436.141 384.73 435.565 384.923 435.537 384.299 435.806 383.891 436.382 383.698Z" fill="#6D2606" fill-rule="evenodd" fill-opacity="0.498" transform="matrix(1.00044 0 0 1 479.177 20.2656)"/><path d="M435.565 384.923C435.594 385.547 435.324 385.955 434.749 386.148 434.72 385.525 434.99 385.116 435.565 384.923Z" fill="#5A2005" fill-rule="evenodd" fill-opacity="0.392" transform="matrix(1.00044 0 0 1 479.177 20.2656)"/><path d="M433.523 388.19C433.552 388.814 433.282 389.222 432.707 389.415 432.678 388.792 432.948 388.383 433.523 388.19Z" fill="#652406" fill-rule="evenodd" fill-opacity="0.451" transform="matrix(1.00044 0 0 1 479.177 20.2656)"/><path d="M431.481 391.458C431.51 392.081 431.24 392.49 430.665 392.683 430.636 392.059 430.905 391.651 431.481 391.458Z" fill="#6F2706" fill-rule="evenodd" fill-opacity="0.51" transform="matrix(1.00044 0 0 1 479.177 20.2656)"/><path d="M430.665 392.683C430.693 393.306 430.424 393.715 429.848 393.908 429.819 393.284 430.089 392.876 430.665 392.683Z" fill="#5C2105" fill-rule="evenodd" fill-opacity="0.408" transform="matrix(1.00044 0 0 1 479.177 20.2656)"/><path d="M418.821 410.244C418.849 410.869 418.58 411.277 418.004 411.469 417.975 410.845 418.245 410.436 418.821 410.244Z" fill="#732907" fill-rule="evenodd" fill-opacity="0.573" transform="matrix(1.00044 0 0 1 479.177 20.2656)"/><path d="M407.385 425.764C407.415 426.389 407.143 426.797 406.569 426.989 406.539 426.364 406.811 425.956 407.385 425.764Z" fill="#602407" fill-rule="evenodd" fill-opacity="0.698" transform="matrix(1.00044 0 0 1 479.177 20.2656)"/><path d="M404.527 429.439C404.556 430.064 404.284 430.473 403.71 430.665 403.68 430.04 403.952 429.631 404.527 429.439Z" fill="#6A2708" fill-rule="evenodd" fill-opacity="0.753" transform="matrix(1.00044 0 0 1 479.177 20.2656)"/><path d="M402.893 431.481C402.923 432.106 402.65 432.515 402.076 432.707 402.046 432.082 402.319 431.673 402.893 431.481Z" fill="#5F2407" fill-rule="evenodd" fill-opacity="0.69" transform="matrix(1.00044 0 0 1 479.177 20.2656)"/><path d="M400.034 435.157C400.064 435.782 399.791 436.19 399.217 436.382 399.187 435.757 399.46 435.349 400.034 435.157Z" fill="#6C2809" fill-rule="evenodd" fill-opacity="0.753" transform="matrix(1.00044 0 0 1 479.177 20.2656)"/><path d="M397.992 437.607C398.022 438.232 397.749 438.641 397.175 438.833 397.145 438.208 397.418 437.799 397.992 437.607Z" fill="#692709" fill-rule="evenodd" fill-opacity="0.737" transform="matrix(1.00044 0 0 1 479.177 20.2656)"/><path d="M395.95 440.058C395.98 440.683 395.707 441.091 395.133 441.283 395.103 440.658 395.376 440.25 395.95 440.058Z" fill="#662608" fill-rule="evenodd" fill-opacity="0.722" transform="matrix(1.00044 0 0 1 479.177 20.2656)"/><path d="M389.007 448.226C389.037 448.851 388.764 449.259 388.19 449.451 388.16 448.826 388.433 448.418 389.007 448.226Z" fill="#6A2809" fill-rule="evenodd" fill-opacity="0.733" transform="matrix(1.00044 0 0 1 479.177 20.2656)"/><path d="M385.74 451.902C385.77 452.527 385.497 452.935 384.923 453.127 384.893 452.502 385.166 452.094 385.74 451.902Z" fill="#5E2307" fill-rule="evenodd" fill-opacity="0.659" transform="matrix(1.00044 0 0 1 479.177 20.2656)"/><path d="M382.064 455.986C381.967 456.762 381.559 457.309 380.839 457.619 380.936 456.843 381.345 456.296 382.064 455.986Z" fill="#672607" fill-rule="evenodd" fill-opacity="0.569" transform="matrix(1.00044 0 0 1 479.177 20.2656)"/><path d="M376.346 462.112C376.376 462.737 376.104 463.145 375.53 463.337 375.5 462.712 375.772 462.304 376.346 462.112Z" fill="#632508" fill-rule="evenodd" fill-opacity="0.675" transform="matrix(1.00044 0 0 1 479.177 20.2656)"/><path d="M364.911 473.956C363.117 476.157 361.075 478.064 358.785 479.673 360.579 477.472 362.621 475.565 364.911 473.956Z" fill="#8F3208" fill-rule="evenodd" fill-opacity="0.851" transform="matrix(1.00044 0 0 1 479.177 20.2656)"/><path d="M357.56 480.898C356.85 482.018 355.896 482.834 354.701 483.349 355.411 482.23 356.364 481.413 357.56 480.898Z" fill="#8F3108" fill-rule="evenodd" fill-opacity="0.851" transform="matrix(1.00044 0 0 1 479.177 20.2656)"/><path d="M353.884 484.166C353.174 485.285 352.221 486.102 351.025 486.616 351.736 485.497 352.689 484.68 353.884 484.166Z" fill="#923308" fill-rule="evenodd" fill-opacity="0.867" transform="matrix(1.00044 0 0 1 479.177 20.2656)"/><path d="M347.758 489.475C347.182 490.459 346.365 491.141 345.308 491.517 345.884 490.533 346.701 489.851 347.758 489.475Z" fill="#953307" fill-rule="evenodd" fill-opacity="0.91" transform="matrix(1.00044 0 0 1 479.177 20.2656)"/><path d="M345.308 491.517C344.864 492.371 344.184 492.914 343.266 493.151 343.709 492.297 344.389 491.754 345.308 491.517Z" fill="#933207" fill-rule="evenodd" fill-opacity="0.929" transform="matrix(1.00044 0 0 1 479.177 20.2656)"/><path d="M342.857 493.559C342.414 494.413 341.734 494.956 340.815 495.193 341.258 494.339 341.939 493.796 342.857 493.559Z" fill="#9A3507" fill-rule="evenodd" fill-opacity="0.949" transform="matrix(1.00044 0 0 1 479.177 20.2656)"/><path d="M324.479 507.445C324.286 508.021 323.877 508.29 323.254 508.262 323.447 507.686 323.855 507.416 324.479 507.445Z" fill="#6C2707" fill-rule="evenodd" fill-opacity="0.725" transform="matrix(1.00044 0 0 1 479.177 20.2656)"/><path d="M259.134 540.526C257.907 541.253 256.545 541.661 255.05 541.751 256.277 541.024 257.638 540.616 259.134 540.526Z" fill="#973306" fill-rule="evenodd" fill-opacity="0.91" transform="matrix(1.00044 0 0 1 479.177 20.2656)"/><path d="M241.164 545.018C241.028 545.292 240.892 545.561 240.756 545.835 239.819 545.508 239.955 545.235 241.164 545.018Z" fill="#602205" fill-rule="evenodd" fill-opacity="0.647" transform="matrix(1.00044 0 0 1 479.177 20.2656)"/><path d="M240.756 545.835C241.379 545.807 241.788 546.076 241.981 546.652 241.357 546.68 240.949 546.411 240.756 545.835Z" fill="#5E2205" fill-rule="evenodd" fill-opacity="0.384" transform="matrix(1.00044 0 0 1 479.177 20.2656)"/><path d="M248.515 550.328C249.139 550.299 249.547 550.569 249.74 551.144 249.117 551.173 248.708 550.903 248.515 550.328Z" fill="#602205" fill-rule="evenodd" fill-opacity="0.4" transform="matrix(1.00044 0 0 1 479.177 20.2656)"/><path d="M261.176 557.679C261.799 557.65 262.208 557.92 262.401 558.496 261.777 558.524 261.369 558.255 261.176 557.679Z" fill="#5B2005" fill-rule="evenodd" fill-opacity="0.373" transform="matrix(1.00044 0 0 1 479.177 20.2656)"/></g></svg>